<?xml version="1.0" encoding="UTF-8" standalone="no"?>
<svg
   height="48"
   width="48"
   version="1.1"
   id="svg4"
   sodipodi:docname="average-sight-seeing-cost.svg"
   inkscape:version="1.1.2 (b8e25be833, 2022-02-05)"
   xmlns:inkscape="http://www.inkscape.org/namespaces/inkscape"
   xmlns:sodipodi="http://sodipodi.sourceforge.net/DTD/sodipodi-0.dtd"
   xmlns="http://www.w3.org/2000/svg"
   xmlns:svg="http://www.w3.org/2000/svg">
  <defs
     id="defs8" />
  <sodipodi:namedview
     id="namedview6"
     pagecolor="#ffffff"
     bordercolor="#666666"
     borderopacity="1.0"
     inkscape:pageshadow="2"
     inkscape:pageopacity="0.0"
     inkscape:pagecheckerboard="0"
     showgrid="false"
     inkscape:zoom="11.681993"
     inkscape:cx="29.661034"
     inkscape:cy="27.820595"
     inkscape:window-width="1680"
     inkscape:window-height="979"
     inkscape:window-x="-8"
     inkscape:window-y="-8"
     inkscape:window-maximized="1"
     inkscape:current-layer="svg4" />
  <path
     d="m13.15 34.85 14.5-7.15 7.15-14.5-14.5 7.15ZM24 26q-.85 0-1.425-.575Q22 24.85 22 24q0-.85.575-1.425Q23.15 22 24 22q.85 0 1.425.575Q26 23.15 26 24q0 .85-.575 1.425Q24.85 26 24 26Zm0 18q-4.1 0-7.75-1.575-3.65-1.575-6.375-4.3-2.725-2.725-4.3-6.375Q4 28.1 4 24q0-4.15 1.575-7.8 1.575-3.65 4.3-6.35 2.725-2.7 6.375-4.275Q19.9 4 24 4q4.15 0 7.8 1.575 3.65 1.575 6.35 4.275 2.7 2.7 4.275 6.35Q44 19.85 44 24q0 4.1-1.575 7.75-1.575 3.65-4.275 6.375t-6.35 4.3Q28.15 44 24 44Zm0-3q7.1 0 12.05-4.975Q41 31.05 41 24q0-7.1-4.95-12.05Q31.1 7 24 7q-7.05 0-12.025 4.95Q7 16.9 7 24q0 7.05 4.975 12.025Q16.95 41 24 41Zm0-17Z"
     id="path2"
     style="fill:#424242;fill-opacity:1" />
</svg>
